<?xml version="1.0" encoding="UTF-8"?>
<!DOCTYPE svg PUBLIC "-//W3C//DTD SVG 1.1//EN" "http://www.w3.org/Graphics/SVG/1.1/DTD/svg11.dtd">
<svg xmlns="http://www.w3.org/2000/svg" version="1.1" width="612px" height="408px" style="shape-rendering:geometricPrecision; text-rendering:geometricPrecision; image-rendering:optimizeQuality; fill-rule:evenodd; clip-rule:evenodd" xmlns:xlink="http://www.w3.org/1999/xlink">
<g><path style="opacity:1" fill="#efc968" d="M 458.5,66.5 C 456.705,72.0835 455.871,78.0835 456,84.5C 455.658,82.3808 454.825,82.0474 453.5,83.5C 455.624,77.2619 455.957,70.9286 454.5,64.5C 456.483,64.1568 457.817,64.8235 458.5,66.5 Z"/></g>
<g><path style="opacity:1" fill="#0069bf" d="M 353.5,88.5 C 355.579,88.9707 357.579,89.6373 359.5,90.5C 360.476,91.8149 361.476,93.1482 362.5,94.5C 360.944,96.7015 359.777,96.7015 359,94.5C 358.586,94.9574 358.086,95.2907 357.5,95.5C 356.452,94.6171 355.285,93.9504 354,93.5C 349.933,92.966 345.766,92.966 341.5,93.5C 341.701,104.792 341.868,116.125 342,127.5C 343.007,130.575 343.507,133.742 343.5,137C 342.85,141.222 342.85,145.389 343.5,149.5C 341.881,152.642 341.215,155.975 341.5,159.5C 342.822,159.33 343.989,159.663 345,160.5C 346.01,165.558 345.51,170.391 343.5,175C 346.005,179.868 346.671,185.035 345.5,190.5C 346.822,190.33 347.989,190.663 349,191.5C 349.499,197.157 349.666,202.824 349.5,208.5C 348.5,208.5 347.5,208.5 346.5,208.5C 346.249,218.509 345.749,228.509 345,238.5C 344,239.833 343,239.833 342,238.5C 341.644,259.912 341.311,281.245 341,302.5C 343.064,303.591 345.231,303.758 347.5,303C 346.196,302.196 345.529,301.029 345.5,299.5C 345.21,279.358 345.543,259.192 346.5,239C 347.449,238.383 348.282,238.549 349,239.5C 349.185,252.545 349.685,265.545 350.5,278.5C 349.555,286.847 348.888,295.013 348.5,303C 355.178,302.3 361.845,302.467 368.5,303.5C 371.165,302.152 373.831,301.819 376.5,302.5C 377.478,302.023 378.311,301.357 379,300.5C 380.83,297.563 382.33,294.563 383.5,291.5C 382.369,286.977 382.369,282.477 383.5,278C 382.683,276.51 381.85,275.01 381,273.5C 380.73,269.627 380.23,265.794 379.5,262C 382.346,255.85 383.68,256.35 383.5,263.5C 384.825,277 384.825,290.5 383.5,304C 368.504,304.5 353.504,304.667 338.5,304.5C 338.989,298.494 339.156,292.494 339,286.5C 338.667,286.833 338.333,287.167 338,287.5C 337.837,266.017 338.67,244.683 340.5,223.5C 340.644,215.49 339.977,207.656 338.5,200C 338.331,196.154 338.998,192.487 340.5,189C 340.69,172.204 340.024,155.371 338.5,138.5C 339,123.152 339.667,107.818 340.5,92.5C 340.563,90.5191 339.896,88.8524 338.5,87.5C 339.667,87.1667 340.833,86.8333 342,86.5C 345.071,87.5781 348.238,88.5781 351.5,89.5C 352.416,89.4573 353.083,89.1239 353.5,88.5 Z"/></g>
<g><path style="opacity:1" fill="#efcd7b" d="M 462.5,73.5 C 467.25,82.7174 467.584,92.0507 463.5,101.5C 465.044,92.0807 464.71,82.7473 462.5,73.5 Z"/></g>
<g><path style="opacity:1" fill="#f0c55d" d="M 447.5,84.5 C 443.77,83.2027 439.936,82.2027 436,81.5C 432.5,82 429,82.5 425.5,83C 423.76,84.6945 421.76,85.8611 419.5,86.5C 419.52,88.143 418.853,89.4763 417.5,90.5C 417.709,91.086 418.043,91.586 418.5,92C 416.324,92.1629 414.491,92.9963 413,94.5C 412.664,97.5382 411.831,100.372 410.5,103C 411.99,107.743 413.323,112.576 414.5,117.5C 413.542,117.047 412.708,116.381 412,115.5C 405.234,95.298 412.234,83.298 433,79.5C 438.379,79.9029 443.212,81.5696 447.5,84.5 Z"/></g>
<g><path style="opacity:1" fill="#578fc2" d="M 352.5,86.5 C 361.918,88.0342 369.585,92.3676 375.5,99.5C 374.448,99.6495 373.448,99.4828 372.5,99C 369.386,94.3999 365.052,91.5665 359.5,90.5C 357.579,89.6373 355.579,88.9707 353.5,88.5C 353.167,87.8333 352.833,87.1667 352.5,86.5 Z"/></g>
<g><path style="opacity:1" fill="#f9be31" d="M 458.5,66.5 C 460.669,68.3403 462.002,70.6737 462.5,73.5C 464.71,82.7473 465.044,92.0807 463.5,101.5C 463.5,102.167 463.5,102.833 463.5,103.5C 461.743,104.292 460.409,105.625 459.5,107.5C 458.571,108.689 458.238,110.022 458.5,111.5C 456.533,111.739 454.699,111.406 453,110.5C 452.493,111.996 452.993,113.163 454.5,114C 452.942,115.202 451.275,116.368 449.5,117.5C 449.169,119.322 448.502,120.989 447.5,122.5C 447.5,123.167 447.167,123.5 446.5,123.5C 438.158,124.746 429.825,124.746 421.5,123.5C 420.635,119.811 418.302,117.811 414.5,117.5C 413.323,112.576 411.99,107.743 410.5,103C 411.831,100.372 412.664,97.5382 413,94.5C 414.491,92.9963 416.324,92.1629 418.5,92C 418.043,91.586 417.709,91.086 417.5,90.5C 418.853,89.4763 419.52,88.143 419.5,86.5C 421.76,85.8611 423.76,84.6945 425.5,83C 429,82.5 432.5,82 436,81.5C 439.936,82.2027 443.77,83.2027 447.5,84.5C 449.751,85.8647 451.751,85.5314 453.5,83.5C 454.825,82.0474 455.658,82.3808 456,84.5C 455.871,78.0835 456.705,72.0835 458.5,66.5 Z"/></g>
<g><path style="opacity:1" fill="#0069bb" d="M 359.5,90.5 C 365.052,91.5665 369.386,94.3999 372.5,99C 373.448,99.4828 374.448,99.6495 375.5,99.5C 376.167,100.167 376.833,100.833 377.5,101.5C 377.427,103.027 378.094,104.027 379.5,104.5C 381.341,106.849 382.674,109.515 383.5,112.5C 384.803,162.988 384.803,213.322 383.5,263.5C 383.68,256.35 382.346,255.85 379.5,262C 380.23,265.794 380.73,269.627 381,273.5C 381.85,275.01 382.683,276.51 383.5,278C 382.369,282.477 382.369,286.977 383.5,291.5C 382.33,294.563 380.83,297.563 379,300.5C 378.311,301.357 377.478,302.023 376.5,302.5C 373.831,301.819 371.165,302.152 368.5,303.5C 361.845,302.467 355.178,302.3 348.5,303C 348.888,295.013 349.555,286.847 350.5,278.5C 349.685,265.545 349.185,252.545 349,239.5C 348.282,238.549 347.449,238.383 346.5,239C 345.543,259.192 345.21,279.358 345.5,299.5C 345.529,301.029 346.196,302.196 347.5,303C 345.231,303.758 343.064,303.591 341,302.5C 341.311,281.245 341.644,259.912 342,238.5C 343,239.833 344,239.833 345,238.5C 345.749,228.509 346.249,218.509 346.5,208.5C 347.5,208.5 348.5,208.5 349.5,208.5C 349.666,202.824 349.499,197.157 349,191.5C 347.989,190.663 346.822,190.33 345.5,190.5C 346.671,185.035 346.005,179.868 343.5,175C 345.51,170.391 346.01,165.558 345,160.5C 343.989,159.663 342.822,159.33 341.5,159.5C 341.215,155.975 341.881,152.642 343.5,149.5C 342.85,145.389 342.85,141.222 343.5,137C 343.507,133.742 343.007,130.575 342,127.5C 341.868,116.125 341.701,104.792 341.5,93.5C 345.766,92.966 349.933,92.966 354,93.5C 355.285,93.9504 356.452,94.6171 357.5,95.5C 358.086,95.2907 358.586,94.9574 359,94.5C 359.777,96.7015 360.944,96.7015 362.5,94.5C 361.476,93.1482 360.476,91.8149 359.5,90.5 Z"/></g>
<g><path style="opacity:1" fill="#acd6ed" d="M 377.5,101.5 C 378.906,101.973 379.573,102.973 379.5,104.5C 378.094,104.027 377.427,103.027 377.5,101.5 Z"/></g>
<g><path style="opacity:1" fill="#f2c85d" d="M 463.5,103.5 C 460.73,112.068 455.397,118.401 447.5,122.5C 448.502,120.989 449.169,119.322 449.5,117.5C 451.275,116.368 452.942,115.202 454.5,114C 452.993,113.163 452.493,111.996 453,110.5C 454.699,111.406 456.533,111.739 458.5,111.5C 458.238,110.022 458.571,108.689 459.5,107.5C 460.409,105.625 461.743,104.292 463.5,103.5 Z"/></g>
<g><path style="opacity:1" fill="#f3cc73" d="M 414.5,117.5 C 418.302,117.811 420.635,119.811 421.5,123.5C 418.145,122.661 415.812,120.661 414.5,117.5 Z"/></g>
<g><path style="opacity:1" fill="#ebc35f" d="M 421.5,123.5 C 429.825,124.746 438.158,124.746 446.5,123.5C 442.562,125.625 438.228,126.625 433.5,126.5C 429.069,126.726 425.069,125.726 421.5,123.5 Z"/></g>
<g><path style="opacity:1" fill="#588dbd" d="M 219.5,140.5 C 223.79,140.198 227.79,140.864 231.5,142.5C 227.236,142.656 223.236,141.989 219.5,140.5 Z"/></g>
<g><path style="opacity:1" fill="#4283bf" d="M 219.5,140.5 C 214.522,140.94 209.689,140.94 205,140.5C 198.592,141.91 192.092,142.743 185.5,143C 182.894,143.45 181.561,144.95 181.5,147.5C 178.09,147.457 174.757,147.957 171.5,149C 166.928,151.753 162.262,154.253 157.5,156.5C 159.64,153.723 162.307,151.556 165.5,150C 182.554,140.625 200.554,137.458 219.5,140.5 Z"/></g>
<g><path style="opacity:1" fill="#046abc" d="M 219.5,140.5 C 223.236,141.989 227.236,142.656 231.5,142.5C 243.95,145.55 254.283,151.883 262.5,161.5C 262.56,162.043 262.893,162.376 263.5,162.5C 264.497,155.532 264.83,148.532 264.5,141.5C 266.167,141.5 267.833,141.5 269.5,141.5C 274.744,141.395 279.744,142.395 284.5,144.5C 285.469,145.309 286.302,146.309 287,147.5C 287.333,147.167 287.667,146.833 288,146.5C 288.645,147.646 289.478,148.646 290.5,149.5C 294.419,151.097 298.086,153.097 301.5,155.5C 302.167,155.833 302.833,156.167 303.5,156.5C 303.986,158.807 303.986,160.973 303.5,163C 304.126,163.75 304.626,164.584 305,165.5C 305.741,164.359 306.575,164.359 307.5,165.5C 308.513,169.219 309.68,172.886 311,176.5C 311.5,219.499 311.667,262.499 311.5,305.5C 295.5,305.5 279.5,305.5 263.5,305.5C 263.666,298.492 263.5,291.492 263,284.5C 262.283,285.044 261.783,285.711 261.5,286.5C 257.413,290.922 252.746,294.589 247.5,297.5C 243.916,298.546 240.25,299.379 236.5,300C 235.157,302.232 233.49,304.066 231.5,305.5C 230.833,305.5 230.167,305.5 229.5,305.5C 216.927,307.32 204.26,307.986 191.5,307.5C 174.8,304.651 160.467,297.317 148.5,285.5C 148.59,281.335 146.59,279.002 142.5,278.5C 140.963,274.921 139.463,271.254 138,267.5C 135.724,266.238 133.891,264.571 132.5,262.5C 131.766,261.292 131.433,259.959 131.5,258.5C 131.278,251.813 129.778,245.48 127,239.5C 125.802,229.87 125.302,220.204 125.5,210.5C 126.635,200.744 129.635,191.744 134.5,183.5C 140.357,178.376 145.024,172.376 148.5,165.5C 149.748,164.96 150.915,164.293 152,163.5C 153.75,161.266 155.25,158.932 156.5,156.5C 156.833,156.5 157.167,156.5 157.5,156.5C 162.262,154.253 166.928,151.753 171.5,149C 174.757,147.957 178.09,147.457 181.5,147.5C 181.561,144.95 182.894,143.45 185.5,143C 192.092,142.743 198.592,141.91 205,140.5C 209.689,140.94 214.522,140.94 219.5,140.5 Z M 245.5,192.5 C 245.833,193.167 246.167,193.833 246.5,194.5C 255.548,203.952 259.548,215.286 258.5,228.5C 258.5,229.167 258.5,229.833 258.5,230.5C 256.444,237.318 253.778,243.984 250.5,250.5C 239.409,262.204 225.742,267.538 209.5,266.5C 191.115,262.447 179.115,251.447 173.5,233.5C 171.299,218.779 174.965,205.779 184.5,194.5C 187.358,191.914 190.358,189.58 193.5,187.5C 211.924,178.275 229.257,179.942 245.5,192.5 Z"/></g>
<g><path style="opacity:1" fill="#006ac0" d="M 439.5,148.5 C 440.968,150.916 441.635,153.583 441.5,156.5C 444.067,156.721 446.401,157.388 448.5,158.5C 448.03,159.693 447.03,160.36 445.5,160.5C 442.074,159.304 438.907,157.638 436,155.5C 435.5,155.833 435,156.167 434.5,156.5C 435.754,160.065 437.421,163.399 439.5,166.5C 438.236,169.757 436.903,172.923 435.5,176C 438.361,178.078 440.695,180.578 442.5,183.5C 440.821,188.555 439.488,188.555 438.5,183.5C 438.167,184 437.833,184.5 437.5,185C 438.287,187.099 438.62,189.266 438.5,191.5C 443.719,190.907 444.386,191.907 440.5,194.5C 437.617,194.128 434.617,194.128 431.5,194.5C 431.5,193.5 431.5,192.5 431.5,191.5C 428.833,191.5 426.167,191.5 423.5,191.5C 423.664,188.813 423.497,186.146 423,183.5C 420.763,181.353 418.763,179.02 417,176.5C 416.503,178.81 416.337,181.143 416.5,183.5C 420.099,183.262 420.433,184.262 417.5,186.5C 417.061,194.136 416.061,201.636 414.5,209C 416.104,221.042 417.104,233.208 417.5,245.5C 419.173,247.086 421.173,247.753 423.5,247.5C 423.5,250.167 423.5,252.833 423.5,255.5C 424.978,255.762 426.311,255.429 427.5,254.5C 428.167,253.167 429.167,252.167 430.5,251.5C 431.66,255.459 431.827,259.459 431,263.5C 428.715,265.907 426.549,268.407 424.5,271C 426.81,271.497 429.143,271.663 431.5,271.5C 431.232,274.119 431.565,276.619 432.5,279C 429.159,279.059 426.325,280.226 424,282.5C 421.563,281.2 419.063,280.2 416.5,279.5C 416.666,286.175 416.5,292.842 416,299.5C 415.333,296.833 414.667,296.833 414,299.5C 413.338,297.187 412.838,294.854 412.5,292.5C 411.688,242.516 411.355,192.516 411.5,142.5C 415.839,141.846 419.673,142.846 423,145.5C 425.782,144.167 428.282,144.667 430.5,147C 433.544,147.363 436.544,147.863 439.5,148.5 Z"/></g>
<g><path style="opacity:1" fill="#8dc1e8" d="M 269.5,141.5 C 267.833,141.5 266.167,141.5 264.5,141.5C 264.83,148.532 264.497,155.532 263.5,162.5C 262.893,162.376 262.56,162.043 262.5,161.5C 263.491,154.687 263.825,147.687 263.5,140.5C 265.735,140.205 267.735,140.539 269.5,141.5 Z"/></g>
<g><path style="opacity:1" fill="#528bc2" d="M 284.5,144.5 C 288.24,145.719 291.907,147.219 295.5,149C 297.899,150.98 299.899,153.147 301.5,155.5C 298.086,153.097 294.419,151.097 290.5,149.5C 289.478,148.646 288.645,147.646 288,146.5C 287.667,146.833 287.333,147.167 287,147.5C 286.302,146.309 285.469,145.309 284.5,144.5 Z"/></g>
<g><path style="opacity:1" fill="#036abb" d="M 448.5,158.5 C 450.968,159.52 452.635,161.354 453.5,164C 452.833,164.333 452.167,164.667 451.5,165C 455.595,167.627 457.595,171.461 457.5,176.5C 458.333,200.826 458.833,225.16 459,249.5C 459.232,250.737 459.732,251.737 460.5,252.5C 460.085,269.998 459.918,287.331 460,304.5C 443.577,305.492 427.077,305.825 410.5,305.5C 410.335,302.15 410.502,298.817 411,295.5C 411.232,294.263 411.732,293.263 412.5,292.5C 412.838,294.854 413.338,297.187 414,299.5C 414.667,296.833 415.333,296.833 416,299.5C 416.5,292.842 416.666,286.175 416.5,279.5C 419.063,280.2 421.563,281.2 424,282.5C 426.325,280.226 429.159,279.059 432.5,279C 431.565,276.619 431.232,274.119 431.5,271.5C 429.143,271.663 426.81,271.497 424.5,271C 426.549,268.407 428.715,265.907 431,263.5C 431.827,259.459 431.66,255.459 430.5,251.5C 429.167,252.167 428.167,253.167 427.5,254.5C 426.311,255.429 424.978,255.762 423.5,255.5C 423.5,252.833 423.5,250.167 423.5,247.5C 421.173,247.753 419.173,247.086 417.5,245.5C 417.104,233.208 416.104,221.042 414.5,209C 416.061,201.636 417.061,194.136 417.5,186.5C 420.433,184.262 420.099,183.262 416.5,183.5C 416.337,181.143 416.503,178.81 417,176.5C 418.763,179.02 420.763,181.353 423,183.5C 423.497,186.146 423.664,188.813 423.5,191.5C 426.167,191.5 428.833,191.5 431.5,191.5C 431.5,192.5 431.5,193.5 431.5,194.5C 434.617,194.128 437.617,194.128 440.5,194.5C 444.386,191.907 443.719,190.907 438.5,191.5C 438.62,189.266 438.287,187.099 437.5,185C 437.833,184.5 438.167,184 438.5,183.5C 439.488,188.555 440.821,188.555 442.5,183.5C 440.695,180.578 438.361,178.078 435.5,176C 436.903,172.923 438.236,169.757 439.5,166.5C 437.421,163.399 435.754,160.065 434.5,156.5C 435,156.167 435.5,155.833 436,155.5C 438.907,157.638 442.074,159.304 445.5,160.5C 447.03,160.36 448.03,159.693 448.5,158.5 Z"/></g>
<g><path style="opacity:1" fill="#3f7bb9" d="M 156.5,156.5 C 155.25,158.932 153.75,161.266 152,163.5C 150.915,164.293 149.748,164.96 148.5,165.5C 145.024,172.376 140.357,178.376 134.5,183.5C 139.601,172.727 146.935,163.727 156.5,156.5 Z"/></g>
<g><path style="opacity:1" fill="#0769b6" d="M 342.5,85.5 C 346.042,85.1872 349.375,85.5206 352.5,86.5C 352.833,87.1667 353.167,87.8333 353.5,88.5C 353.083,89.1239 352.416,89.4573 351.5,89.5C 348.238,88.5781 345.071,87.5781 342,86.5C 340.833,86.8333 339.667,87.1667 338.5,87.5C 339.896,88.8524 340.563,90.5191 340.5,92.5C 339.667,107.818 339,123.152 338.5,138.5C 340.024,155.371 340.69,172.204 340.5,189C 338.998,192.487 338.331,196.154 338.5,200C 339.977,207.656 340.644,215.49 340.5,223.5C 338.67,244.683 337.837,266.017 338,287.5C 338.333,287.167 338.667,286.833 339,286.5C 339.156,292.494 338.989,298.494 338.5,304.5C 337.833,304.5 337.167,304.5 336.5,304.5C 336.5,231.5 336.5,158.5 336.5,85.5C 338.5,85.5 340.5,85.5 342.5,85.5 Z"/></g>
<g><path style="opacity:1" fill="#5396cf" d="M 342.5,85.5 C 340.5,85.5 338.5,85.5 336.5,85.5C 336.5,158.5 336.5,231.5 336.5,304.5C 336.5,304.833 336.5,305.167 336.5,305.5C 335.501,232.002 335.167,158.335 335.5,84.5C 338.059,84.1984 340.393,84.5318 342.5,85.5 Z"/></g>
<g><path style="opacity:1" fill="#5b93c6" d="M 245.5,192.5 C 229.257,179.942 211.924,178.275 193.5,187.5C 194.598,186.603 194.598,185.77 193.5,185C 204.835,180.849 216.501,179.516 228.5,181C 232.615,183.317 236.949,185.317 241.5,187C 242.965,188.774 244.298,190.608 245.5,192.5 Z"/></g>
<g><path style="opacity:1" fill="#5e90be" d="M 193.5,187.5 C 190.358,189.58 187.358,191.914 184.5,194.5C 184.351,193.448 184.517,192.448 185,191.5C 186.5,190.667 187.667,189.5 188.5,188C 190.134,187.506 191.801,187.34 193.5,187.5 Z"/></g>
<g><path style="opacity:1" fill="#7995c7" d="M 383.5,112.5 C 385.368,119.408 386.368,126.575 386.5,134C 386.628,191.194 386.462,248.027 386,304.5C 369.577,305.492 353.077,305.825 336.5,305.5C 336.5,305.167 336.5,304.833 336.5,304.5C 337.167,304.5 337.833,304.5 338.5,304.5C 353.504,304.667 368.504,304.5 383.5,304C 384.825,290.5 384.825,277 383.5,263.5C 384.803,213.322 384.803,162.988 383.5,112.5 Z"/></g>
<g><path style="opacity:1" fill="#3b7dbd" d="M 439.5,148.5 C 436.544,147.863 433.544,147.363 430.5,147C 428.282,144.667 425.782,144.167 423,145.5C 419.673,142.846 415.839,141.846 411.5,142.5C 411.355,192.516 411.688,242.516 412.5,292.5C 411.732,293.263 411.232,294.263 411,295.5C 410.502,298.817 410.335,302.15 410.5,305.5C 409.335,251.002 409.168,196.335 410,141.5C 410.893,140.919 411.893,140.585 413,140.5C 420.285,141.446 427.452,142.946 434.5,145C 436.431,145.902 438.097,147.069 439.5,148.5 Z"/></g>
<g><path style="opacity:1" fill="#5d91c5" d="M 246.5,194.5 C 250.617,195.616 252.95,198.283 253.5,202.5C 256.645,203.077 258.145,205.077 258,208.5C 259.564,215.295 259.731,221.961 258.5,228.5C 259.548,215.286 255.548,203.952 246.5,194.5 Z"/></g>
<g><path style="opacity:1" fill="#3e81c4" d="M 439.5,148.5 C 440.552,148.351 441.552,148.517 442.5,149C 454.059,158.119 460.059,170.119 460.5,185C 460.389,207.459 460.389,229.959 460.5,252.5C 459.732,251.737 459.232,250.737 459,249.5C 458.833,225.16 458.333,200.826 457.5,176.5C 457.595,171.461 455.595,167.627 451.5,165C 452.167,164.667 452.833,164.333 453.5,164C 452.635,161.354 450.968,159.52 448.5,158.5C 446.401,157.388 444.067,156.721 441.5,156.5C 441.635,153.583 440.968,150.916 439.5,148.5 Z"/></g>
<g><path style="opacity:1" fill="#296da0" d="M 303.5,156.5 C 305.08,159.263 306.913,161.93 309,164.5C 309.798,167.893 310.798,171.226 312,174.5C 312.831,218.335 312.665,262.002 311.5,305.5C 311.667,262.499 311.5,219.499 311,176.5C 309.68,172.886 308.513,169.219 307.5,165.5C 306.575,164.359 305.741,164.359 305,165.5C 304.626,164.584 304.126,163.75 303.5,163C 303.986,160.973 303.986,158.807 303.5,156.5 Z"/></g>
<g><path style="opacity:1" fill="#5f90c1" d="M 125.5,210.5 C 125.302,220.204 125.802,229.87 127,239.5C 129.778,245.48 131.278,251.813 131.5,258.5C 130.034,257.653 129.2,256.32 129,254.5C 124.558,239.961 123.391,225.294 125.5,210.5 Z"/></g>
<g><path style="opacity:1" fill="#4b89c0" d="M 258.5,230.5 C 258.664,233.187 258.497,235.854 258,238.5C 256.133,240.808 255.133,243.475 255,246.5C 254.124,248.635 252.624,249.969 250.5,250.5C 253.778,243.984 256.444,237.318 258.5,230.5 Z"/></g>
<g><path style="opacity:1" fill="#4b85bf" d="M 173.5,233.5 C 179.115,251.447 191.115,262.447 209.5,266.5C 205.094,265.908 200.761,265.908 196.5,266.5C 196.719,265.325 196.386,264.325 195.5,263.5C 190.712,261.571 186.379,258.904 182.5,255.5C 181.571,254.311 181.238,252.978 181.5,251.5C 180.167,251.5 178.833,251.5 177.5,251.5C 175.756,245.598 174.422,239.598 173.5,233.5 Z"/></g>
<g><path style="opacity:1" fill="#6797c8" d="M 132.5,262.5 C 133.891,264.571 135.724,266.238 138,267.5C 139.463,271.254 140.963,274.921 142.5,278.5C 138.173,273.857 134.839,268.524 132.5,262.5 Z"/></g>
<g><path style="opacity:1" fill="#608ec0" d="M 142.5,278.5 C 146.59,279.002 148.59,281.335 148.5,285.5C 146.155,283.486 144.155,281.153 142.5,278.5 Z"/></g>
<g><path style="opacity:1" fill="#b9dff8" d="M 263.5,305.5 C 262.833,299.167 262.167,292.833 261.5,286.5C 261.783,285.711 262.283,285.044 263,284.5C 263.5,291.492 263.666,298.492 263.5,305.5 Z"/></g>
<g><path style="opacity:1" fill="#5e90c3" d="M 247.5,297.5 C 242.753,301.207 237.419,303.874 231.5,305.5C 233.49,304.066 235.157,302.232 236.5,300C 240.25,299.379 243.916,298.546 247.5,297.5 Z"/></g>
<g><path style="opacity:1" fill="#6697c3" d="M 229.5,305.5 C 222.568,308.324 215.235,309.657 207.5,309.5C 201.932,309.571 196.599,308.904 191.5,307.5C 204.26,307.986 216.927,307.32 229.5,305.5 Z"/></g>
</svg>
